<mxfile host="app.diagrams.net" modified="2022-03-08T01:54:53.701Z" agent="5.0 (Windows NT 10.0; Win64; x64) AppleWebKit/537.36 (KHTML, like Gecko) Chrome/98.0.4758.121 Safari/537.36" etag="1fpINnDYJwkuFlef5qf1" version="16.6.7" type="github">
  <diagram id="cKcUhYNU4gicFupRbqOp" name="第 1 页">
    <mxGraphModel dx="484" dy="895" grid="1" gridSize="10" guides="1" tooltips="1" connect="1" arrows="1" fold="1" page="1" pageScale="1" pageWidth="827" pageHeight="1169" math="0" shadow="0">
      <root>
        <mxCell id="0" />
        <mxCell id="1" parent="0" />
        <mxCell id="Fex3CshYnEK76ttKrV99-1" value="手动生成：稍后读" style="rounded=1;whiteSpace=wrap;html=1;" parent="1" vertex="1">
          <mxGeometry x="40" y="700" width="120" height="60" as="geometry" />
        </mxCell>
        <mxCell id="Fex3CshYnEK76ttKrV99-2" value="第一层过滤：信息获取" style="rounded=1;whiteSpace=wrap;html=1;" parent="1" vertex="1">
          <mxGeometry x="170" y="760" width="140" height="60" as="geometry" />
        </mxCell>
        <mxCell id="Fex3CshYnEK76ttKrV99-3" value="第二层过滤：信息阅读" style="rounded=1;whiteSpace=wrap;html=1;" parent="1" vertex="1">
          <mxGeometry x="390" y="760" width="140" height="60" as="geometry" />
        </mxCell>
        <mxCell id="Fex3CshYnEK76ttKrV99-4" value="第三层过滤：信息处理" style="rounded=1;whiteSpace=wrap;html=1;" parent="1" vertex="1">
          <mxGeometry x="570" y="760" width="140" height="60" as="geometry" />
        </mxCell>
        <mxCell id="Fex3CshYnEK76ttKrV99-5" value="订阅获取：RSS" style="rounded=1;whiteSpace=wrap;html=1;" parent="1" vertex="1">
          <mxGeometry x="200" y="680" width="82.5" height="40" as="geometry" />
        </mxCell>
        <mxCell id="Fex3CshYnEK76ttKrV99-6" value="&lt;span style=&quot;text-align: center&quot;&gt;书籍阅读：&lt;br&gt;&lt;/span&gt;&lt;span&gt;- app：微信读书、蜗牛阅读&lt;/span&gt;&lt;br&gt;&lt;div&gt;&lt;span&gt;- 水墨屏：kindle&lt;/span&gt;&lt;/div&gt;&lt;div&gt;&lt;span&gt;- 格式转换：Calibre&lt;/span&gt;&lt;/div&gt;" style="rounded=1;whiteSpace=wrap;html=1;align=left;" parent="1" vertex="1">
          <mxGeometry x="600" y="220" width="100" height="60" as="geometry" />
        </mxCell>
        <mxCell id="Fex3CshYnEK76ttKrV99-7" value="待办清单：&lt;br&gt;滴答清单" style="rounded=1;whiteSpace=wrap;html=1;direction=west;" parent="1" vertex="1">
          <mxGeometry x="200" y="320" width="80" height="40" as="geometry" />
        </mxCell>
        <mxCell id="Fex3CshYnEK76ttKrV99-8" value="pdf阅读：BookxNote" style="rounded=1;whiteSpace=wrap;html=1;" parent="1" vertex="1">
          <mxGeometry x="600" y="320" width="80" height="40" as="geometry" />
        </mxCell>
        <mxCell id="Fex3CshYnEK76ttKrV99-9" value="项目管理：&lt;br&gt;Notion、Trello" style="rounded=1;whiteSpace=wrap;html=1;" parent="1" vertex="1">
          <mxGeometry x="200" y="160" width="80" height="40" as="geometry" />
        </mxCell>
        <mxCell id="Fex3CshYnEK76ttKrV99-10" value="时间记录：Toggl" style="rounded=1;whiteSpace=wrap;html=1;arcSize=13;" parent="1" vertex="1">
          <mxGeometry x="200" y="480" width="80" height="40" as="geometry" />
        </mxCell>
        <mxCell id="Fex3CshYnEK76ttKrV99-11" value="网络文章：&lt;br&gt;Cubox" style="rounded=1;whiteSpace=wrap;html=1;" parent="1" vertex="1">
          <mxGeometry x="200" y="600" width="80" height="40" as="geometry" />
        </mxCell>
        <mxCell id="Fex3CshYnEK76ttKrV99-12" value="文章阅读：Cubox、简悦" style="rounded=1;whiteSpace=wrap;html=1;" parent="1" vertex="1">
          <mxGeometry x="600" y="520" width="80" height="40" as="geometry" />
        </mxCell>
        <mxCell id="Fex3CshYnEK76ttKrV99-13" value="任务管理：&lt;br&gt;Notion、滴答清单、Obsidian" style="rounded=1;whiteSpace=wrap;html=1;" parent="1" vertex="1">
          <mxGeometry x="200" y="240" width="80" height="40" as="geometry" />
        </mxCell>
        <mxCell id="Fex3CshYnEK76ttKrV99-14" value="日程：&lt;br&gt;" style="rounded=1;whiteSpace=wrap;html=1;direction=west;" parent="1" vertex="1">
          <mxGeometry x="201.25" y="400" width="80" height="40" as="geometry" />
        </mxCell>
        <mxCell id="Fex3CshYnEK76ttKrV99-15" value="日程：固定时间" style="text;html=1;align=center;verticalAlign=middle;resizable=0;points=[];autosize=1;strokeColor=none;fillColor=none;" parent="1" vertex="1">
          <mxGeometry x="360" y="410" width="100" height="20" as="geometry" />
        </mxCell>
        <mxCell id="Fex3CshYnEK76ttKrV99-16" value="不重要、额外的事项" style="text;html=1;align=center;verticalAlign=middle;resizable=0;points=[];autosize=1;strokeColor=none;fillColor=none;" parent="1" vertex="1">
          <mxGeometry x="360" y="330" width="120" height="20" as="geometry" />
        </mxCell>
        <mxCell id="Fex3CshYnEK76ttKrV99-17" value="每日安排的事项" style="text;html=1;align=center;verticalAlign=middle;resizable=0;points=[];autosize=1;strokeColor=none;fillColor=none;" parent="1" vertex="1">
          <mxGeometry x="360" y="250" width="100" height="20" as="geometry" />
        </mxCell>
        <mxCell id="Fex3CshYnEK76ttKrV99-18" value="年度目标&lt;br&gt;含义：根据规划分解而来的项目&lt;br&gt;app需求：要有时间线，了解当下的任务进度" style="text;html=1;align=center;verticalAlign=middle;resizable=0;points=[];autosize=1;strokeColor=none;fillColor=none;" parent="1" vertex="1">
          <mxGeometry x="289" y="155" width="250" height="50" as="geometry" />
        </mxCell>
        <mxCell id="Fex3CshYnEK76ttKrV99-19" value="人生规划：Notion，obsiidan" style="rounded=1;whiteSpace=wrap;html=1;" parent="1" vertex="1">
          <mxGeometry x="200" y="80" width="80" height="40" as="geometry" />
        </mxCell>
        <mxCell id="Fex3CshYnEK76ttKrV99-20" value="Area，&lt;br&gt;即一生中最重要的领域" style="text;html=1;align=center;verticalAlign=middle;resizable=0;points=[];autosize=1;strokeColor=none;fillColor=none;" parent="1" vertex="1">
          <mxGeometry x="350" y="85" width="140" height="30" as="geometry" />
        </mxCell>
      </root>
    </mxGraphModel>
  </diagram>
</mxfile>
